<?xml version="1.0" encoding="UTF-8" standalone="no"?>
<!-- Created with Inkscape (http://www.inkscape.org/) -->

<svg
   width="74mm"
   height="105mm"
   viewBox="0 0 74 105"
   version="1.1"
   id="svg1"
   xml:space="preserve"
   inkscape:version="1.3 (0e150ed6c4, 2023-07-21)"
   sodipodi:docname="logo_quick.svg"
   xmlns:inkscape="http://www.inkscape.org/namespaces/inkscape"
   xmlns:sodipodi="http://sodipodi.sourceforge.net/DTD/sodipodi-0.dtd"
   xmlns="http://www.w3.org/2000/svg"
   xmlns:svg="http://www.w3.org/2000/svg"><sodipodi:namedview
     id="namedview1"
     pagecolor="#ffffff"
     bordercolor="#000000"
     borderopacity="0.25"
     inkscape:showpageshadow="2"
     inkscape:pageopacity="0.0"
     inkscape:pagecheckerboard="0"
     inkscape:deskcolor="#d1d1d1"
     inkscape:document-units="mm"
     inkscape:zoom="1.5340488"
     inkscape:cx="281.60773"
     inkscape:cy="166.55272"
     inkscape:window-width="1920"
     inkscape:window-height="1057"
     inkscape:window-x="-8"
     inkscape:window-y="-8"
     inkscape:window-maximized="1"
     inkscape:current-layer="layer1" /><defs
     id="defs1" /><g
     inkscape:label="Layer 1"
     inkscape:groupmode="layer"
     id="layer1"><g
       id="g5"
       transform="matrix(1.2984674,0,0,1.2984674,-80.514638,-87.967662)"><path
         style="fill:#ef757e;fill-opacity:1;stroke-width:0.264583"
         d="m 68.644597,121.76655 c 0,-0.91986 -0.03404,-1.84035 0,-2.75958 0.08097,-2.1862 0.433658,-4.36811 0.344948,-6.55401 -0.568118,-13.998984 -1.690686,-25.882688 0.431185,-38.547909 0.118316,-0.473266 0.653912,-0.730099 1.034844,-1.034844 0.05448,-0.04358 12.699005,-2.931299 18.63764,-2.928464 6.195058,0.0029 12.343836,3.368381 16.627136,7.883282 5.97049,6.293304 9.21452,10.014655 6.04272,19.795183 -0.42066,1.297156 -1.16417,2.802672 -2.15593,3.794422 -0.61469,0.6147 -2.28182,1.68162 -2.07274,2.58711 0.41504,1.79755 8.2626,10.09114 7.82282,16.79274 -1.00591,1.78731 -6.11992,3.90341 -8.27874,4.48432 -1.63597,0.3272 -10.236325,-0.23653 -11.52796,-1.09762 -0.676497,-0.45099 -1.216829,-1.08985 -1.724736,-1.72474 -0.824976,-1.03122 -1.292109,-1.80663 -1.72474,-3.10452 -0.208893,-0.62668 0.183351,-1.88634 -0.344947,-2.41464 -0.0813,-0.0813 -0.263645,0.0813 -0.344948,0 -0.0813,-0.0813 0.114982,-0.34495 0,-0.34495 -0.229966,0 0,0.45993 0,0.6899 v 2.06969 c 0,2.74637 0.439409,6.03494 -2.587109,6.64024 -5.198266,0.99528 -10.338166,1.3958 -15.608884,0.60366 -0.253611,-0.0423 -0.43778,-0.29453 -0.689896,-0.34495 -0.771922,-0.15439 -4.38556,-0.17389 -4.139371,-1.89721 0.08757,-0.61298 0.02875,-2.0122 0.258708,-2.58711 z"
         id="path4"
         sodipodi:nodetypes="csssssssssssssssssssccssc" /><path
         style="fill:#fe6e79;fill-opacity:1;stroke-width:0.264583"
         d="m 71.749128,139.01394 c 1.459947,-3.3905 4.59766,-3.78374 10.348432,-4.13938 4.492504,-0.27782 30.80473,-2.15339 28.97561,6.55401 -0.73103,3.48002 -22.966728,2.62392 -33.546168,1.46602 -2.12017,-0.30288 -4.925782,-0.69195 -5.777874,-3.88065 z"
         id="path5"
         sodipodi:nodetypes="csssc" /></g></g></svg>
